<svg xmlns="http://www.w3.org/2000/svg" viewBox="5.9 93.6 366.5 189">
  <style>
    .B{fill-opacity:.302}.C{fill-opacity:.502}.D{fill:#03989e}.E{clip-rule:nonzero}.F{fill-opacity:.4}
  </style>
  <defs>
    <path id="I" d="m90 194 4-.6v-30.6l-3.8-.7V159h9.6l1.8-.2 4.4-.2c3.5 0 6.3.4 8.4 1.1s3.7 1.8 4.6 3.3a11.8 11.8 0 0 1-.5 12.3 10 10 0 0 1-5.4 4.2c1.4.5 2.6 1.6 3.6 3.1 1 1.6 2.2 3.6 3.4 6l2 3.6c.4.7.9 1.2 1.3 1.3l1.7.5v3h-8.7c-.5 0-1.1-.6-1.7-1.7-.6-1-1.4-2.8-2.3-5.2l-3-6.5c-.8-1.6-1.6-2.6-2.5-3h-5.3v12.8l4.7.5v3.1H90zm16.3-16.5c2 0 3.4-.7 4.5-2 1.1-1.5 1.7-3.6 1.7-6.4 0-2.5-.6-4.3-1.6-5.5-1.1-1.2-3-1.8-5.6-1.8-1 0-1.7 0-2.4.2h-1.3v15.4l3 .1zm0 0"/>
    <path id="J" d="m191.2 181.9-11-19-2.9-.7V159h15v3.2l-3.6.6 6.4 12.6 1.5 3.5 1.4-3.5 6-12.6-4-.6V159h12.4v3.2l-3.2.6-10.1 19v11.6l5.5.5v3.1h-18.8v-3l5.4-.6zm0 0"/>
    <path id="K" d="m277.2 162.8-4.3-.6V159h16.3v3.2l-4.5.6v30.6l4.5.6v3H273v-3l4.3-.6zm0 0"/>
    <path id="L" d="m305.8 162.8-4-.6V159h16.4v3.2l-4.9.6v30.6l11-.5 3.2-9.6 4.1.6L330 197h-28.2v-3l4-.6zm0 0"/>
    <path id="M" d="m87.8 191.7 4-.5v-30.6l-3.8-.7v-3.2h9.5l1.8-.1 4.4-.2c3.5 0 6.4.3 8.5 1s3.6 1.9 4.6 3.3c1 1.5 1.4 3.4 1.4 5.8s-.6 4.5-1.9 6.5-3 3.4-5.5 4.2c1.4.6 2.6 1.6 3.7 3.2 1 1.5 2.2 3.5 3.3 6l2 3.6c.5.7 1 1.1 1.4 1.2l1.7.5v3h-8.7c-.6 0-1.2-.5-1.7-1.6l-2.4-5.3-2.9-6.5a6.6 6.6 0 0 0-2.6-3h-5.3v12.9l4.7.5v3H87.8zm16.2-16.4c2 0 3.5-.7 4.6-2.1 1-1.4 1.6-3.5 1.6-6.3 0-2.5-.5-4.4-1.6-5.6-1-1.1-3-1.8-5.5-1.8l-2.5.2-1.3.1v15.3c.4.1 1.4.2 3 .2zm0 0"/>
    <path id="N" d="m113 138 1.8-6.4-1.4-4.3h-1.2v-.4h6.8v.4h-1.3l3.3 10.5 2.7-10.5h-2.2v-.4h4.4v.4h-1.5l-4 15.4h-2l-3.3-10-2.9 10h-2l-5.5-15.4h-1v-.4h7.2v.4h-1.6zm0 0"/>
    <path id="O" d="M129 127h11.5l.2 4.3h-.4a7.8 7.8 0 0 0-2-3c-.6-.6-1.6-.9-3-.9h-.7v6.9h.8a2.3 2.3 0 0 0 1.7-.8c.5-.5.8-1.3 1-2.1h.3v6.5h-.3c-.3-1-.7-1.9-1.1-2.3-.5-.5-1-.8-1.9-.8h-.5v7.2h.8c1.4 0 2.6-.4 3.5-1.2 1-.9 1.6-1.9 2-3.2h.4l-.1 4.9H129v-.5h1.3v-14.6H129zm0 0"/>
    <path id="P" d="M145.3 127h8v.4h-2.4V142h.8c1.3 0 2.3-.4 3-1.2s1.5-2 2.3-3.5h.5l-.5 5.2h-11.7v-.5h1.3v-14.6h-1.3zm0 0"/>
    <path id="Q" d="M169.4 127.1c-2.3 0-3.5 2.2-3.5 6.7v1.7c0 2.1.3 3.8 1 5 .5 1.2 1.4 1.8 2.6 1.8 1.7 0 3.2-1.6 4.5-4.8h.4l-.1 5h-.3l-.2-.4-.4-.1-1.6.3a11.9 11.9 0 0 1-2.8.4c-2.4 0-4.3-.7-5.6-2-1.3-1.3-2-3.2-2-5.8s.7-4.7 2-6a7.4 7.4 0 0 1 5.7-2.2c.9 0 1.8 0 2.6.3l1.5.4.4-.1.2-.4h.3l.1 4.8h-.4c-.6-1.5-1.3-2.6-2-3.4a3.1 3.1 0 0 0-2.4-1.2zm0 0"/>
    <path id="R" d="M189.4 135.6V134a18 18 0 0 0-.4-5.2c-.3-.8-.7-1.3-1.3-1.5l-1.1-.2-1.2.2c-.3.1-.5.3-.7.6l-.5 1a41.5 41.5 0 0 0-.4 5.2v1.5l.1 3.9.6 1.6c.4.8 1.1 1.1 2 1.1 1.3 0 2-.5 2.4-1.4.3-1 .5-2.8.5-5.2zm-2.9 7c-2.4 0-4.3-.6-5.5-2-1.2-1.3-1.8-3.2-1.8-5.7s.6-4.6 2-6 3.1-2.2 5.5-2.2 4.2.7 5.4 2 1.9 3.4 1.9 6c0 2.5-.7 4.5-1.9 5.9-1.2 1.4-3 2-5.6 2zm0 0"/>
    <path id="S" d="M209.5 127h6v.3h-1.3V142h1.2v.5h-6.7v-.5h1.2v-13.8h-.1l-3.3 14.3h-2.8l-4-14.4v14h1.2v.4h-3v-.5h1.2v-14.7H198v-.4h6l3 11.5zm0 0"/>
    <path id="T" d="m255.3 127 .2 5.5h-.4c-.6-2-1.2-3.3-1.7-4-.5-.8-1.3-1.1-2.2-1.1h-.3V142h2v.5h-8.2v-.5h2v-14.6h-.4c-1 0-1.7.4-2.2 1.1-.5.8-1 2-1.7 4h-.4l.2-5.6zm0 0"/>
    <path id="U" d="M49.5 220.5H47l-.7 3.8H45l.3-5h10.9l.2 5H55l-.6-3.7-2.4-.1v10.3l2.4.1v1h-7v-1l2-.1zm0 0"/>
    <path id="V" d="m59.1 231 1.3-.2v-10.1l-1.2-.3v-1h3.7l1.5-.1a9 9 0 0 1 2.8.3c.7.2 1.2.6 1.5 1.1a4 4 0 0 1-.2 4 3.2 3.2 0 0 1-1.8 1.5c.5.1.9.5 1.2 1l1.2 2 .6 1.2.4.4.6.1v1h-2.9c-.1 0-.3-.1-.5-.5l-.8-1.7-1-2.2a2 2 0 0 0-.8-1h-1.8v4.3l1.6.1v1H59zm5.4-5.5c.6 0 1.1-.2 1.5-.7s.5-1.1.5-2c0-.9-.1-1.5-.5-1.9-.4-.4-1-.6-1.8-.6h-1.3v5.2h1zm0 0"/>
    <path id="W" d="m88 220.7-1.4-.3v-1h4l.7-.1h.8c2 0 3.6.5 4.7 1.5 1 1 1.5 2.5 1.5 4.4a8 8 0 0 1-.8 3.6A5.8 5.8 0 0 1 92 232h-1.5l-1.3-.2h-2.6v-1l1.3-.1zm2.4 10.1 1.6.2a3 3 0 0 0 2.6-1.4c.7-.9 1-2.2 1-4 0-1.7-.3-3-1-3.9-.6-.9-1.6-1.4-2.9-1.4a5.2 5.2 0 0 0-.8.1h-.5zm0 0"/>
    <path id="X" d="m102.7 220.7-1.4-.3v-1h5.4v1l-1.5.3v10l1.5.2v1h-5.4v-1l1.4-.1zm0 0"/>
    <path id="Y" d="M137.5 232.1c-1.8 0-3.2-.5-4.1-1.7a7.4 7.4 0 0 1-1.4-4.7 9 9 0 0 1 .7-3.4 5.3 5.3 0 0 1 5-3c2 0 3.3.5 4.3 1.6.9 1 1.4 2.6 1.4 4.6 0 1.3-.3 2.5-.8 3.5s-1.2 1.8-2 2.3c-1 .6-2 .8-3 .8zm.2-11.8c-1 0-1.7.4-2.2 1.3a9 9 0 0 0-.7 4c0 1.9.2 3.2.7 4.1.5 1 1.2 1.4 2.2 1.4.9 0 1.6-.5 2.1-1.4a9 9 0 0 0 .8-4.2 8 8 0 0 0-.8-4 2.3 2.3 0 0 0-2.1-1.2zm0 0"/>
    <path id="Z" d="m147.6 220.7-1.4-.3v-1h3.9l5 7.6 1 2v-8.3l-1.5-.3v-1h4.2v1l-1.3.3v11.2h-2l-5.3-8-1.2-2.2v9l1.7.2v1h-4.5v-1l1.4-.1zm0 0"/>
    <path id="a" d="M165.5 219.3h2.5l4 11.5 1 .1v1h-5v-1l1.2-.1-.7-2.2h-4.3l-.7 2.2 1.4.1v1h-4.3v-1l1-.1zm1.1 2.9-.3-1.3-.3 1.3-1.5 5.2h3.7zm0 0"/>
    <path id="b" d="m176.4 220.7-1.3-.3v-1h5.4v1l-1.6.3v10l3.6-.1 1-3.2 1.5.2-.6 4.3h-9.3v-1l1.3-.1zm0 0"/>
    <path id="c" d="m194.6 220.7-1.4-.3v-1h9.3l.2 3h-1.3l-.7-1.8-3.6-.2v4.8h2.5l.3-1.6h1.1v4.3h-1l-.4-1.5h-2.5v4.4l2.6.1v1h-6.4v-1l1.3-.1zm0 0"/>
    <path id="d" d="m218.5 232.1-1.7-.1-1.6-.4-.8-.2.2-3.1h1.3l.4 2.1.8.5 1.3.2c.8 0 1.3-.2 1.7-.5s.6-.8.6-1.4c0-.4-.1-.8-.4-1a3 3 0 0 0-.9-.8 18.8 18.8 0 0 0-1.6-.8c-1-.5-1.7-1-2.4-1.6-.6-.6-.9-1.4-.9-2.4a3.1 3.1 0 0 1 2-3 7.7 7.7 0 0 1 3.8-.3l1.4.4.7.1-.1 3h-1.4l-.3-2.1-.7-.3-1-.1c-.6 0-1.2.1-1.5.4-.3.3-.5.7-.5 1.3 0 .4.1.7.4 1a3.2 3.2 0 0 0 .9.8l1.7.9 1.6 1a4.1 4.1 0 0 1 1.2 1c.3.5.5 1 .5 1.7 0 .6-.2 1.2-.5 1.8s-.8 1-1.5 1.4c-.7.4-1.6.5-2.7.5zm0 0"/>
    <path id="e" d="m227.4 220.7-1.3-.3v-1h5.2v1l-1.5.3v4.2h5.2v-4.2l-1.3-.3v-1h5v1l-1.2.3v10l1.3.2v1h-5.1v-1l1.3-.1v-4.6h-5.2v4.6l1.5.1v1H226v-1l1.3-.1zm0 0"/>
    <path id="f" d="m259.6 226.1-1.3.2a5.3 5.3 0 0 1-1.3 3.6l1 .7 1.2.3v1l-.7.1h-.8l-1.2-.1-1-.6a5 5 0 0 1-3.1.8c-1.5 0-2.6-.3-3.5-.9s-1.2-1.4-1.2-2.5a2.6 2.6 0 0 1 .7-1.8c.5-.5 1.1-1 1.8-1.2a10 10 0 0 1-1-1.7 4 4 0 0 1-.4-1.7c0-.5.2-1 .5-1.5s.7-.9 1.3-1.2a4 4 0 0 1 1.9-.4c.7 0 1.3.1 1.8.4s.8.5 1 .9c.3.3.4.7.4 1.1 0 .6 0 1.2-.3 1.6-.2.4-.5.8-1 1.1-.4.4-1 .7-1.6 1l1.6 2 1.5 1.5.3.3c.4-.7.6-1.5.6-2.4v-.4l-1.3-.2V225h4zm-8.6-4.2c0 .6.1 1 .4 1.5a8.4 8.4 0 0 0 .8 1.3c.6-.5 1-1 1.2-1.4.2-.5.4-1 .4-1.6a2.1 2.1 0 0 0-.3-1.1c-.2-.4-.6-.5-1-.5a1.3 1.3 0 0 0-1 .5c-.3.3-.5.8-.5 1.3zm1.6 9.1a3 3 0 0 0 1.9-.5 15.7 15.7 0 0 1-1.4-1.4l-1.8-2.1-.4-.5-.8 1c-.2.3-.3.6-.3 1 0 .8.2 1.4.7 1.8a3 3 0 0 0 2.1.7zm0 0"/>
    <path id="g" d="M273.6 232.1c-2 0-3.4-.5-4.4-1.7a6.8 6.8 0 0 1-1.5-4.7 7 7 0 0 1 .8-3.4c.5-1 1.2-1.7 2.2-2.3 1-.5 2-.8 3.2-.8a10.6 10.6 0 0 1 1.4.1l1.7.3.7.1-.2 3.5H276l-.5-2.4a1 1 0 0 0-.7-.3l-1.1-.2c-1 0-1.8.5-2.4 1.4s-.8 2.1-.8 3.8c0 1.6.2 3 .8 4s1.4 1.5 2.4 1.5l1.2-.1.7-.4.7-1.8 1.5.2-.4 2.6-.7.1-.4.1-1.3.3-1.4.1zm0 0"/>
    <path id="h" d="m306.5 220.7-1.3-.3v-1h3.6l1.9-.1a7 7 0 0 1 2.7.4 3 3 0 0 1 1.5 1.2c.3.6.4 1.3.4 2 0 1.5-.4 2.6-1.3 3.4s-2.1 1.2-3.7 1.2H309v3.3l2.3.1v1h-6.1v-1l1.3-.1zm2.5 5.7h1.3c.7 0 1.4-.2 1.8-.7.5-.6.7-1.5.7-2.7 0-1-.2-1.6-.6-2-.4-.5-1-.7-2-.7a8.3 8.3 0 0 0-.9 0l-.3.1zm0 0"/>
    <path id="i" d="m158.5 244-1.4-.3v-1h9l.2 2.8h-1.1l-.6-1.7-3.6-.1v4.5h2.3l.3-1.4h1v4h-1l-.3-1.4H161v4.8l4-.2 1-2.2 1.3.3-.4 3.1H157v-1l1.4-.2zm0 0"/>
    <path id="j" d="m130.1 267.2-1.8-.2v-1h5.3l2 7.2.4 2 .5-2 2-7.3h5.2v1l-1.9.3 1.4 10.1 1.4.2v1h-5.4v-1l1.5-.2-.8-7.4-.3-3-.6 2.5-2.5 8.6h-1.8l-2.5-8.1-.9-3-.2 3-.6 7.4 1.7.2v1h-4.7v-1l1.4-.2zm0 0"/>
    <path id="k" d="M149.2 275.7c.4 0 .8.2 1.1.6.3.4.4 1 .4 1.6 0 .7 0 1.3-.3 2-.2.7-.5 1.2-.9 1.7l-1 1-.7-.5v-.3c.3-.2.5-.6.7-1.2a5 5 0 0 0 .3-1.7v-.4a2 2 0 0 0-.4-.4l-.4-.6-.1-.6c0-.4 0-.7.3-.9.3-.2.6-.3 1-.3zm0 0"/>
    <clipPath id="A">
      <path d="M70 93.6h37.5v12.8H70zm0 0" class="E"/>
    </clipPath>
    <clipPath id="B">
      <path d="M269 94.1h35.7V107H269zm0 0" class="E"/>
    </clipPath>
    <clipPath id="C">
      <path d="M293 119.5h51V138h-51zm0 0" class="E"/>
    </clipPath>
    <clipPath id="D">
      <path d="M329 144h15v2.5h-15zm0 0" class="E"/>
    </clipPath>
    <clipPath id="E">
      <path d="M286.3 136h8.7v2h-8.7zm0 0" class="E"/>
    </clipPath>
    <clipPath id="F">
      <path d="M31.4 119.5H82V138H31.4zm0 0" class="E"/>
    </clipPath>
    <clipPath id="G">
      <path d="M31.4 144H46v2.5H31.4zm0 0" class="E"/>
    </clipPath>
    <clipPath id="H">
      <path d="M80 136h8.8v2H80zm0 0" class="E"/>
    </clipPath>
  </defs>
  <g clip-path="url(#A)">
    <path fill="#fff" d="M105 94h-2.5c-1.9-.2-3.7-.4-5.7-.3a7 7 0 0 0-4.4 1.2c-1.2.8-1.9 2-2.6 3.1-.8 1.3-1.7 2.8-3.3 3.2l-2.3.4c-.4 0-1 .2-1.4 0-.3 0-.6-.2-1-.4-2.3-1-5.7-2.1-8-.2-1.2 1-2.3 2-3.7 2.6-.1.1 0 .4.1.4 1.4 0 3 .3 4.3-.2 1-.4 1.7-1 2.6-1.4 1-.4 2-.3 3-.1.2 0 2.1.6 2.3.4-.7.7-1 1.7-1.5 2.5-.1.2 0 .4.2.3.7-.4 1.4-1 2.2-.7l2 1c1 .5 2.2 1 3.3.8 1.4-.2 2.7-.8 4-1.3 1.3-.6 2.8-1.2 4.4-1.2.2 0 .3-.3 0-.3-1-.3-2 0-2.9-.2-.5 0-1.2-.1-1.2-.7-.1-.7.5-1.8.8-2.4 1.5-2.6 3.9-5.1 7-4.9h1.6c1.4.1 3.4.2 4.6-.8.4-.3.5-.8.7-1.2l-1.2.3-1.3.1zm0 0"/>
  </g>
  <g clip-path="url(#B)">
    <path fill="#fff" d="M271.2 94.5h2.5c1.8-.2 3.6-.4 5.4-.3a8 8 0 0 1 4.3 1.1c1 .8 1.8 2 2.4 3 .8 1.3 1.7 2.7 3.2 3.1l2.2.4c.5 0 1 .2 1.4 0l.9-.3c2.3-1 5.5-2.1 7.7-.3s.1 0 .1 0c1.1 1 2.2 2 3.5 2.6l-.1.3c-1.4 0-2.9.3-4.1-.2-1-.4-1.6-1-2.5-1.4-1-.3-2-.2-2.9 0-.2 0-2 .6-2.2.4.6.7 1 1.6 1.4 2.4.1.1 0 .3-.2.3-.7-.4-1.3-1-2.1-.7-.7.2-1.3.6-2 1a6 6 0 0 1-3.1.7c-1.3-.1-2.5-.8-3.7-1.3-1.4-.6-2.8-1-4.4-1-.1 0-.2-.3 0-.4 1-.3 1.9 0 2.8-.1.5 0 1.2-.2 1.2-.7.1-.7-.5-1.8-.8-2.4-1.4-2.5-3.7-4.9-6.8-4.7l-1.4.1c-1.4 0-3.4.1-4.5-.9-.4-.3-.4-.7-.7-1l1.2.2 1.3.1zm0 0"/>
  </g>
  <g class="D" clip-path="url(#C)">
    <path d="M343.3 136.6a8 8 0 0 0-2.5-.3c-.4 0-.7.2-1.1.3-.4.2-.8.4-1.1.2-.7-.2-1-1-.7-1.6l.6-.9c.3-.2.7 0 1 0 .5.1.9-.2 1-.7 0-.5-.2-1-.6-1.4-.9-.9-2.3-1-3.5-1h-2c-.7 0-1.5 0-2.1.3-.7.3-1.2.8-1.7 1.4-.5.5-1 .9-1.6 1.2-1 .7-2.3 1-3.6.9a6.5 6.5 0 0 1-3.6-1.2 2 2 0 0 1-1-1.7l-.2-1.2v-1.2c0-1.3.6-3.2 2.1-3.5.8-.1 1.6.2 2.4.5.6.2 1.4.5 2-.1 1-1.2-.4-2.6-1.2-3.5a6.8 6.8 0 0 0-3.8-2.3l-2.5-.5-2.5-.5a12 12 0 0 0-2.5-.3c-.8 0-1.5.1-2.2.3a11 11 0 0 0-3.8 2c-2.5 1.9-4.2 4.5-6.2 6.8a14.7 14.7 0 0 1-7 5.2 7 7 0 0 1-2 .3c-.3 0-.3.4 0 .4 3 .4 5.7-1.2 7.8-3.1 2.3-2.2 4-5 6.1-7.2 1.9-2 4.4-3.8 7.3-3.9.8 0 1.6 0 2.5.2l2.5.5c1.6.3 3.2.4 4.5 1.4l1.7 1.5c.4.5 1 1 1 1.8 0 .2-.2.5-.4.6-.3.1-.8-.1-1-.2a5 5 0 0 0-2.4-.3c-1.3.2-2.2 1.4-2.5 2.6a9 9 0 0 0-.3 2.3c-.1.8-.2 1.6.1 2.4.4 1.3 1.8 2 3 2.4a8 8 0 0 0 4 .2 7 7 0 0 0 3.4-1.8c.5-.6 1-1.2 1.6-1.6.6-.4 1.3-.5 2-.6a15.9 15.9 0 0 1 4 0c.6.2 1.2.5 1.6 1 .2.3.4 1.1 0 1.3-.4.1-.8-.1-1-.1-.4 0-.7.1-.9.4-.4.4-.7 1.1-.7 1.8s.5 1.3 1.1 1.4c.8.2 1.6-.3 2.3-.4.8-.2 1.6 0 2.4 0 .4.1.6-.4.2-.5zm0 0"/>
  </g>
  <path d="m325 124.6-.1-.2h-.1v.2h-.2c0-.1 0-.2-.2-.3 0-.2-.3-.2-.6-.2h-.6l-.7.2h-.4a1 1 0 0 0-.4.2l-.3.3a3 3 0 0 1-.5.3l-.5.2h-1.1a1.7 1.7 0 0 0-.4.2 2.4 2.4 0 0 0-.6.4 3.8 3.8 0 0 0-.4.6 2 2 0 0 0-.3.7v.7a4.9 4.9 0 0 0 0 .6v.5l.1.1v.7a1 1 0 0 1 0 .1v.5l-.1.1c0 .1 0 .1.1 0a1.6 1.6 0 0 0 .2-.2v-1.9a3.7 3.7 0 0 1 0-.5 1.9 1.9 0 0 1 .2-.6l.3-.4a3.6 3.6 0 0 1 .6-.6 1.6 1.6 0 0 1 .3-.2h.3l.5-.1.6-.1a2.6 2.6 0 0 0 1.1-.6l.2-.2.2-.2.4-.1h.4l.8-.2h.3v.2h.1v.2h.1c.1 0 .1 0 0 0h.5v-.1l.1-.1v-.1zm-1 0zm13.6 8.6a.3.3 0 0 0 0-.1l-.3-.1-.2.1v.4s-.1 0 0 0l-.1.1a1.4 1.4 0 0 1-.2.1.9.9 0 0 1-.2.2h-.7a.7.7 0 0 0-.6.5v.6a1.6 1.6 0 0 0 0 .3l.1.2h.2v-.6a.7.7 0 0 1 0-.2v-.1l.1-.1h.1a1.3 1.3 0 0 1 .1-.1h.5a1.3 1.3 0 0 0 .6-.2c.3-.2.5-.5.6-.9v-.1zm-30.5-5.4zm1.3-1.8a2.5 2.5 0 0 0-.5.5h-.1a.6.6 0 0 0-.1.1l-.6.6-.6.7-.3.3-.3.4-.6.7-.7.7-1.3 1.4-.7.6-.6.6-.1.2v-.1l-.2.2a3 3 0 0 1-.5.3h-.2l-.2.2h-.2v.2h.7l.5-.2a3.8 3.8 0 0 0 .4-.2l.4-.3.4-.4.4-.3.8-.8 1.6-1.8.6-.9.6-.8.1-.1.2-.3.4-.4.1-.2.2-.2.2-.2.1-.1.2-.2c.1 0 0-.2 0-.1zm-7.4 7.3zm6.2-3.5v.1l-.2.1v.2l-.3.2-.1.2-.3.4-.3.4-.3.5v-.1l-.4.6-.2.2v.2l-.1.1v.2h.2l.1-.1a.2.2 0 0 1 .1 0l.1-.2.3-.2.4-.6.5-.6.2-.3.2-.4v-.1l.1-.2.1-.2v-.2c0-.1 0-.2-.1-.1zm28.2 12.2c-.4.6-1.3.6-2 .6H330c-.8 0-1.7 0-2.6-.2a3.6 3.6 0 0 1-1-.4c-.3-.2-.6-.5-.7-.8v-.7c.1-.2.5-.2.7-.2l1-.1h1c.1 0 .3-.2.3-.4 0-.4-.3-.9-.6-1.2a3 3 0 0 0-1.2-.7l-1.4-.4-2-.3a8 8 0 0 0-3.4.8l-2.8 1.6a7 7 0 0 1-3.1.9c-1.3 0-2.4-.4-3.7-.6a8.6 8.6 0 0 0-3.6 0c-1.1.3-2.1 1-3.2 1.5a9 9 0 0 1-3.3 1.2 10.1 10.1 0 0 1-1.9 0l-1.7-.2-1-.2s-.2.1 0 .2a8 8 0 0 0 7 .4c1-.4 2-1 3.1-1.6l1.6-.7c.5-.2 1.1-.3 1.7-.3 2.4.1 4.7 1.2 7 .5 2-.6 3.7-2.1 5.8-2.6 1.2-.3 2.4 0 3.6.2.8.2 1.7.4 2.3 1.1a1 1 0 0 1 0 .2l-.6.2-1 .1c-.4 0-1 .2-1 .7-.2.9.5 1.8 1.2 2.2a7 7 0 0 0 2.8.5h4c1 0 2.3 0 2.7-1.1 0-.3-.3-.4-.5-.2zm-10-3h-.8l-.5.2c-.4.1-.8.2-1 .5l-.1.5v.6a1.4 1.4 0 0 0 0 .5l.4.4.3.2h.2l.2.2h.1c0 .1.1.1.2 0a.4.4 0 0 0 0-.3l-.2-.2a.9.9 0 0 0-.2-.1 2.6 2.6 0 0 1-.3-.2l-.1-.1v-.1l-.1-.2v-.9h.1l.1-.1.3-.1.5-.1.4-.2.2-.1a1.6 1.6 0 0 0 .1-.1s.1-.1 0-.1c.1 0 .2 0 .1-.1zm-17.4 4.1h-.1l-.2-.1h-.2l-.4-.2h-.3l-.3-.1h-.2a6.2 6.2 0 0 0-1.6 0l-1.4.4-1.3.6a7 7 0 0 1-1.5.4h-.3.1-.6l-.1.1h-.4v.2h.2v.1h.2l.1.1h.4a1.9 1.9 0 0 0 .2 0h1.3a8.8 8.8 0 0 0 1-.4l1.1-.4a7.2 7.2 0 0 1 1.2-.3h1.9a.7.7 0 0 0 .1 0h.6a.4.4 0 0 0 .2 0h.1l.1-.2v-.2zm0 0" class="D"/>
  <g class="D" clip-path="url(#D)">
    <path d="M343.7 144.1h-.8l-.5.3-.5.1-.5.2-1 .4-1.1.3-1.2.3a8.4 8.4 0 0 1-2.1 0l-2.6-.7c-.9-.2-1.8-.4-2.7-.3h-.8l-.3.2a2.6 2.6 0 0 0-.4.2l.1.2h.6a5.2 5.2 0 0 1 .8 0h.6l.7.1 1.4.4 1.4.4a8.6 8.6 0 0 0 5.9-.3l.3-.1.2-.1h.1l.8-.4.3-.1.3-.2.7-.4.3-.2v-.3zm0 0"/>
  </g>
  <g class="D" clip-path="url(#E)">
    <path d="M294.5 136.4h-1l-.7.1h-.5l-1 .2H289a12.8 12.8 0 0 1-.6 0h-1.5c-.1 0 0 0 0 0h-.2a.4.4 0 0 0-.2 0l-.1.2v.2l.1.2h.2l.1.1a.4.4 0 0 0 .1 0l.4.1.8.1h-.1l.8.1h2.1l.8-.1a10.8 10.8 0 0 0 1-.2l.4-.1.6-.2h-.1.3l.2-.1.1-.1.2-.1.1-.2c.1 0 .1-.2 0-.2zm0 0"/>
  </g>
  <path d="M291.8 137.6h-.1.1zm37-10.6v-.1c0-.1-.1-.2-.2-.1v.2c0 .1-.1 0-.1 0a.4.4 0 0 1 0 .1l-.1.1h-.5a1 1 0 0 0-.2 0 .8.8 0 0 0-.3.1v.1a2.6 2.6 0 0 0-.2.2l-.1.2-.2.3h-.2l-.3-.1a1.2 1.2 0 0 0-.1 0v-.1h-.2c0-.1-.1 0-.2 0v.3l.1.1.2.3.3.1a.9.9 0 0 0 .4.1c.3 0 .6-.2.8-.6l.2-.3h.1l.3-.1c.2 0 .3-.2.4-.3l.1-.4v-.1zm12.1 4.6zm1.1.9a.8.8 0 0 0-.1-.3.6.6 0 0 0-.2-.2.7.7 0 0 0-.2-.2l-.4-.1-.1-.1h-.1c-.1-.2-.3-.1-.4 0v.3l.2.1v.1l.4.3h.1v.2l-.2.5-.1.2v.2a.6.6 0 0 0 .2.5c.1.1.3 0 .4-.2a.4.4 0 0 0 0-.2v-.1l.4-.7v-.3zm-15.9-.8v-.1l-.1-.1a.3.3 0 0 0-.2 0h-.4a1 1 0 0 1-.1-.1h-.1a.7.7 0 0 1-.1-.2h-.1v-.4a.3.3 0 0 0-.2-.2h-.7c-.1 0 0 0 0 .1-.2 0-.2.2 0 .3h.2v.3a.6.6 0 0 0 0 .2l.2.2c.2.3.6.5 1 .5h.3a1 1 0 0 0 .1-.1l.2-.3v-.1zm0 0" class="D"/>
  <g class="D" clip-path="url(#F)">
    <path d="M31.9 136.6a8 8 0 0 1 2.4-.3l1.2.3c.3.2.7.4 1 .2.7-.2 1-1 .8-1.6a2 2 0 0 0-.6-.9c-.3-.2-.7 0-1 0-.6.1-1-.2-1-.7 0-.5.2-1 .5-1.4 1-.9 2.3-1 3.6-1h2c.7 0 1.4 0 2 .3a5 5 0 0 1 1.8 1.4l1.5 1.2a6 6 0 0 0 3.7.9c1.2-.1 2.6-.4 3.6-1.2.6-.4.9-1 1-1.7l.1-1.2v-1.2c0-1.3-.5-3.2-2-3.5-.9-.1-1.7.2-2.4.5-.7.2-1.4.5-2-.1-1-1.2.3-2.6 1.2-3.5l1.6-1.5c.7-.4 1.4-.6 2.2-.8l2.4-.5 2.6-.5a12 12 0 0 1 2.5-.3l2.1.3c1.4.4 2.7 1 3.8 2 2.5 1.9 4.3 4.5 6.3 6.8 1.8 2.3 4 4.4 7 5.2.6.2 1.3.3 2 .3.3 0 .2.4 0 .4-3 .4-5.7-1.2-7.8-3.1-2.3-2.2-4-5-6.2-7.2-1.8-2-4.4-3.8-7.2-3.9-.9 0-1.7 0-2.5.2l-2.6.5c-1.5.3-3.2.4-4.5 1.4-.6.4-1.1 1-1.6 1.5s-1.1 1-1 1.8c0 .2.1.5.4.6.3.1.7-.1 1-.2a5 5 0 0 1 2.3-.3c1.3.2 2.2 1.4 2.6 2.6a13.3 13.3 0 0 1 .2 4.7c-.5 1.3-1.9 2-3.1 2.4a8 8 0 0 1-4 .2 6.2 6.2 0 0 1-3.4-1.8c-.5-.6-.9-1.2-1.6-1.6-.5-.4-1.2-.5-1.9-.6a15.9 15.9 0 0 0-4 0c-.6.2-1.3.5-1.6 1-.2.3-.4 1.1 0 1.3.3.1.7-.1 1-.1.4 0 .6.1.8.4.5.4.8 1.1.7 1.8 0 .7-.4 1.3-1.1 1.4-.8.2-1.5-.3-2.3-.4-.8-.2-1.6 0-2.4 0-.3.1-.5-.4-.1-.5zm0 0"/>
  </g>
  <path d="M50.2 124.6v-.2h.2v.2h.1l.2-.3c.1-.2.4-.2.6-.2h.7l.6.2h.4l.4.2.3.3.6.3.5.2h1.1a1.7 1.7 0 0 1 .4.2 2.4 2.4 0 0 1 .5.4 3.5 3.5 0 0 1 .5.6l.3.7v.7a5.6 5.6 0 0 1 0 .6v.3h-.1v.4a4.6 4.6 0 0 0 0 .7 1 1 0 0 0 0 .1v.6c.1.1 0 .1 0 0-.1 0-.2 0-.2-.2v-.2l-.1-.6v-1.1a3.7 3.7 0 0 0 0-.5 1.9 1.9 0 0 0-.2-.6l-.3-.4a3.6 3.6 0 0 0-.6-.6 1.6 1.6 0 0 0-.3-.2h-.2l-.6-.1a2.5 2.5 0 0 1-.6-.1 2.6 2.6 0 0 1-1-.6l-.3-.2-.1-.2h-.1l-.4-.1h-.4l-.7-.2H51l-.1.2-.1.2h-.3a.3.3 0 0 1-.2 0 .3.3 0 0 1-.1-.1v-.2zm.8 0zm-13.4 8.6v-.1a.3.3 0 0 1 .3-.1l.1.1v.3l.1.1v.1l.2.1a1 1 0 0 0 .2.2h.8c.2 0 .3.1.4.3a.6.6 0 0 1 .2.2v.6a1.6 1.6 0 0 1 0 .3l-.2.2h-.1v-.6a.7.7 0 0 0 0-.2v-.1a.5.5 0 0 0-.2-.1l-.1-.1h-.6a1.3 1.3 0 0 1-.5-.2c-.4-.2-.6-.5-.7-.9v-.1zm30.4-5.4zm-1.3-1.8a2.8 2.8 0 0 1 .6.5l.2.1.6.6.5.7.3.3.3.4.6.7.7.7 1.4 1.4.6.6.6.6.2.2v-.1l.1.2a3.1 3.1 0 0 0 .5.3h.2l.2.2h.2v.2h-.6l-.5-.2-.4-.2-.4-.3-.5-.4-.3-.3-.9-.8-1.6-1.8-.6-.9-.6-.8v-.1H68l-.2-.3-.3-.4-.2-.2-.1-.2H67l-.1-.2-.2-.1-.2-.2s0-.2.1-.1zm7.4 7.3zm-6.2-3.5.1.1.1.1v.1l.1.1.2.2.1.2.3.4.3.4.3.5v-.1l.4.6.2.2v.2a1.6 1.6 0 0 1 .2.1v.2h-.3v-.1h-.2v-.2l-.3-.2-.5-.6-.4-.6-.2-.3-.2-.4-.1-.1a.9.9 0 0 1 0-.3l-.2-.1v-.2l.1-.2zM39.7 142c.4.6 1.4.6 2 .6h3.5c.9 0 1.8 0 2.6-.2a3.6 3.6 0 0 0 1-.4c.4-.2.7-.5.8-.8v-.7c-.2-.2-.5-.2-.8-.2l-.9-.1h-1c-.2 0-.3-.2-.3-.4 0-.4.2-.9.5-1.2.4-.3.8-.6 1.3-.7l1.3-.4 2-.3c1.3 0 2.4.3 3.4.8l2.8 1.6c1 .5 2 .9 3.2.9 1.2 0 2.4-.4 3.6-.6 1.2-.2 2.4-.3 3.6 0 1.2.3 2.2 1 3.2 1.5 1 .6 2.2 1 3.4 1.2a10.1 10.1 0 0 0 1.8 0l1.8-.2.9-.2c.1 0 .2.1 0 .2a8 8 0 0 1-7 .4c-1-.4-2-1-3-1.6a11.3 11.3 0 0 0-1.6-.7l-1.8-.3c-2.3.1-4.7 1.2-7 .5-2-.6-3.6-2.1-5.7-2.6-1.2-.3-2.5 0-3.6.2-.9.2-1.8.4-2.3 1.1a1 1 0 0 0-.1.2l.6.2 1 .1c.5 0 1 .2 1 .7.3.9-.4 1.8-1.2 2.2-.8.4-1.8.5-2.8.5H42c-1 0-2.4 0-2.8-1.1 0-.3.4-.4.5-.2zm10.1-3h.7l.6.2c.3.1.7.2 1 .5v.5l.1.6a1.4 1.4 0 0 1 0 .5 1.2 1.2 0 0 1-.4.4l-.4.2h-.2l-.2.2h-.1c0 .1 0 .1-.1 0v-.3l.1-.2a.9.9 0 0 1 .2-.1 2.6 2.6 0 0 0 .4-.2v-.1a.6.6 0 0 0 .1-.1v-.2a2 2 0 0 0 0-.5v-.4l-.2-.1-.3-.1-.4-.1-.5-.2-.2-.1a1.6 1.6 0 0 1 0-.1h-.1v-.1l-.1-.1zm17.4 4.1.2-.1h.2l.4-.2h.4l.3-.1h.2a6.2 6.2 0 0 1 3 .4l1.2.6 1.6.4h.8a.3.3 0 0 1 0 .1h.4l.1.1-.1.1h-.1v.1h-.2l-.2.1H75a1.9 1.9 0 0 1-.3 0h-1.2a8.8 8.8 0 0 1-1.1-.4l-1-.4-1.3-.3h-2.6a.4.4 0 0 1-.2 0l-.2-.2v-.2zm0 0" class="D"/>
  <g class="D" clip-path="url(#G)">
    <path d="M31.4 144.1h.8l.5.3.6.1.5.2 1 .4 1.1.3 1.1.3a8.4 8.4 0 0 0 2.2 0l2.6-.7c.8-.2 1.7-.4 2.6-.3h.8l.4.2a2.6 2.6 0 0 1 .3.2v.2h-.6c-.1 0 0 0 0 0h-.1a5.3 5.3 0 0 0-.7 0h-.6a5.9 5.9 0 0 0-.8.1l-1.4.4-1.4.4a8.6 8.6 0 0 1-5.8-.3l-.3-.1-.3-.1-.8-.4-.3-.1-.4-.2-.6-.4-.3-.2v-.3zm0 0"/>
  </g>
  <g class="D" clip-path="url(#H)">
    <path d="M80.7 136.4h1l.6.1h.6l1 .2H87a1.6 1.6 0 0 0 .2 0h1.3a.4.4 0 0 1 .2 0v.2c.1 0 .1.2 0 .2v.2h-.2l-.2.1-.4.1-.8.1-.7.1h-2.1l-.9-.1-1-.2-.4-.1-.5-.2h-.3l-.1-.1H81c-.1 0 0-.1 0-.1l-.2-.1-.2-.2a.1.1 0 0 1 0-.2zm0 0"/>
  </g>
  <g class="D">
    <path d="M83.3 137.6h.1zm-37-10.6v-.1l.2-.1.1.1v.1c0 .1 0 0 0 0l.1.1v.1l.5-.1h.2a.8.8 0 0 1 .3.2l.1.1.1.2.2.2.1.3h.1a.8.8 0 0 0 .2 0l.2-.1h.1l.1-.1h.1c0-.1.2 0 .2 0v.4l-.3.3a1.5 1.5 0 0 1-.2.1.9.9 0 0 1-.4.1c-.4 0-.7-.2-.9-.6l-.2-.3-.4-.1a.8.8 0 0 1-.4-.3v-.4a.3.3 0 0 1 0-.1zm-12.1 4.6zm-1 .9a.9.9 0 0 1 0-.3.6.6 0 0 1 .2-.2.7.7 0 0 1 .2-.2l.4-.1.2-.1c.2-.2.4-.1.4 0a.4.4 0 0 1 0 .2v.1l-.1.1v.1l-.5.3v.2l.2.5v.2l.1.2a.6.6 0 0 1-.2.5c-.2.1-.4 0-.4-.2a.4.4 0 0 1 0-.2h-.1v-.1l-.4-.7a.5.5 0 0 1 0-.3zm15.8-.8v-.1l.2-.1a.3.3 0 0 1 .1 0h.1a1 1 0 0 0 .2 0h.1a1 1 0 0 0 .2-.1.5.5 0 0 0 .2-.2.5.5 0 0 0 0-.2v-.2a.3.3 0 0 1 .2-.2h.7l.1.1v.3h-.4v.3a.6.6 0 0 1 0 .2l-.2.2a1.1 1.1 0 0 1-1 .5h-.1a1 1 0 0 1 0-.1.3.3 0 0 1-.3-.3.2.2 0 0 0 0-.1zm0 0"/>
    <path d="m12.4 162.8-4.2-.6V159h28.2l.5 9.3h-4l-2-5.7-11-.5v14.4l7.6-.1 1-4.5h3.3v13h-3.2l-1-4.6-7.7-.2v13.3l7.8.5v3.1H8.5v-3l3.9-.6zm40 0-4.1-.6V159h27.3l.6 8.6h-3.6l-1.6-5-11.1-.5v13.7l7.1-.1.8-4.2h3.3v12.4h-3.3l-.8-4.4-7.1-.2v14.4l12.4-.6 3-6.5 3.8 1-1.3 9.4H48.4v-3l4-.6zm0 0" class="F"/>
    <use class="F" href="#I"/>
    <use x="45.1" class="F" href="#I"/>
    <use class="F" href="#J"/>
    <path d="m225.7 162.8-3.8-.6V159h15.6v3.2l-4.3.6v12.9h15.5v-12.9l-4-.6V159h15.4v3.2l-3.9.6v30.6l4 .5v3.1h-15.5v-3l4-.6v-13.8h-15.5v13.8l4.3.5v3.1h-15.7v-3l4-.6zm0 0" class="F"/>
    <use class="F" href="#K"/>
    <use class="F" href="#L"/>
    <use x="40.8" class="F" href="#L"/>
  </g>
  <g fill="#ffd058">
    <path d="m10.1 160.6-4.2-.7v-3.2h28.3l.5 9.3h-4.1l-1.9-5.6-11-.6v14.5l7.6-.2 1-4.5h3.2v13h-3.2l-1-4.6-7.6-.2v13.4l7.8.5v3H6.2v-3l4-.5zm40 0-4-.7v-3.2h27.2l.7 8.6h-3.6l-1.7-5-11-.5v13.8l7-.2.9-4.2h3.2v12.4h-3.2l-.8-4.4-7.2-.2v14.5l12.4-.7 3-6.5 3.8 1-1.3 9.4H46.1v-3l4-.5zm0 0"/>
    <use href="#M"/>
    <use x="45.1" href="#M"/>
    <use x="-2.3" y="-2.3" href="#J"/>
    <path d="m223.4 160.6-3.7-.7v-3.2h15.5v3.2l-4.3.7v12.8h15.6v-12.8l-4-.7v-3.2H258v3.2l-4 .7v30.6l4 .5v3h-15.4v-3l4-.5v-13.9H231v13.9l4.3.5v3h-15.6v-3l3.8-.5zm0 0"/>
    <use x="-2.3" y="-2.3" href="#K"/>
    <use x="-2.3" y="-2.3" href="#L"/>
    <use x="38.6" y="-2.3" href="#L"/>
  </g>
  <g fill="#363636">
    <use class="B" href="#N"/>
    <use class="B" href="#O"/>
    <use class="B" href="#P"/>
    <use class="B" href="#Q"/>
    <use class="B" href="#R"/>
    <use class="B" href="#S"/>
    <use x="89.9" class="B" href="#O"/>
    <use class="B" href="#T"/>
    <use x="80.5" class="B" href="#R"/>
    <use x="-1" y="-1" class="C" href="#N"/>
    <path d="M128 126h11.5l.3 4.3h-.4a7.8 7.8 0 0 0-2-3c-.7-.6-1.7-.9-3-.9h-.8v6.9h.8a2.3 2.3 0 0 0 1.7-.8c.5-.5.8-1.2 1-2.1h.4v6.6h-.4c-.3-1.2-.6-2-1-2.4-.5-.5-1.2-.7-2-.7h-.5v7.1h.9a5 5 0 0 0 3.4-1.2c1-.8 1.6-1.9 2-3.2h.5l-.2 4.9H128v-.5h1.3v-14.6H128zm0 0" class="C"/>
    <use x="-1" y="-1" class="C" href="#P"/>
    <use x="-1" y="-1" class="C" href="#Q"/>
    <use x="-1" y="-1" class="C" href="#R"/>
    <use x="-1" y="-1" class="C" href="#S"/>
    <use x="89" y="-1" class="C" href="#O"/>
    <use x="-1" y="-1" class="C" href="#T"/>
    <use x="79.6" y="-1" class="C" href="#R"/>
  </g>
  <g class="D">
    <use x="-2" y="-2" href="#N"/>
    <path d="M127 125h11.5l.3 4.3h-.4a7.8 7.8 0 0 0-2-3c-.7-.6-1.7-.9-3-.9h-.8v6.9h.8a2.3 2.3 0 0 0 1.7-.8c.5-.5.9-1.2 1-2.1h.4v6.6h-.4c-.3-1.1-.6-2-1-2.4-.5-.5-1.1-.7-2-.7h-.5v7.1h.9a5 5 0 0 0 3.4-1.2c1-.8 1.7-1.9 2-3.1h.5l-.2 4.8H127v-.5h1.3v-14.6H127zm0 0"/>
    <use x="-2" y="-2" href="#P"/>
    <use x="-2" y="-2" href="#Q"/>
    <use x="-2" y="-2" href="#R"/>
    <path d="M207.5 125h6v.4h-1.2V140h1.2v.4h-6.8v-.4h1.2v-14l-3.4 14.4h-2.8l-3.9-14.4v14h1.1v.4h-3v-.4h1.2v-14.7H196v-.4h6l3 11.4zm0 0"/>
    <use x="88" y="-2" href="#O"/>
    <use x="-2" y="-2" href="#T"/>
    <use x="78.6" y="-2" href="#R"/>
  </g>
  <use class="B" href="#U"/>
  <use class="B" href="#V"/>
  <path d="M77 219.3h2.5l4 11.5 1 .1v1h-5v-1l1.2-.1-.6-2.2h-4.4l-.7 2.2 1.4.1v1H72v-1l1-.1zm1.1 2.9-.3-1.3-.3 1.3-1.5 5.2h3.7zm0 0" class="B"/>
  <use class="B" href="#W"/>
  <use class="B" href="#X"/>
  <use x="64.4" class="B" href="#U"/>
  <use x="22.4" class="B" href="#X"/>
  <use class="B" href="#Y"/>
  <use class="B" href="#Z"/>
  <use class="B" href="#a"/>
  <use class="B" href="#b"/>
  <use class="B" href="#c"/>
  <use x="104.3" class="B" href="#X"/>
  <use class="B" href="#d"/>
  <use class="B" href="#e"/>
  <use class="B" href="#f"/>
  <use class="B" href="#g"/>
  <use x="54.7" class="B" href="#e"/>
  <use x="195.4" class="B" href="#X"/>
  <use class="B" href="#h"/>
  <use x="103.9" class="B" href="#d"/>
  <use x="-.7" y="-.7" class="C" href="#U"/>
  <use x="-.7" y="-.7" class="C" href="#V"/>
  <use x="-89.2" y="-.7" class="C" href="#a"/>
  <use x="-.7" y="-.7" class="C" href="#W"/>
  <use x="-.7" y="-.7" class="C" href="#X"/>
  <use x="63.7" y="-.7" class="C" href="#U"/>
  <use x="21.6" y="-.7" class="C" href="#X"/>
  <use x="-.7" y="-.7" class="C" href="#Y"/>
  <path d="m146.8 219.9-1.3-.2v-1h3.8l5 7.5 1 2v-8.3l-1.5-.2v-1h4.2v1l-1.3.2v11.3h-2l-5.3-8-1.2-2.2v9l1.8.2v1h-4.5v-1l1.3-.2zm0 0" class="C"/>
  <use x="-.7" y="-.7" class="C" href="#a"/>
  <use x="-.7" y="-.7" class="C" href="#b"/>
  <use x="-.7" y="-.7" class="C" href="#c"/>
  <use x="103.6" y="-.7" class="C" href="#X"/>
  <use x="-.7" y="-.7" class="C" href="#d"/>
  <use x="-.7" y="-.7" class="C" href="#e"/>
  <path d="m258.8 225.4-1.2.2a5.3 5.3 0 0 1-1.3 3.5l1 .7c.3.1.7.3 1.1.3v1l-.6.1-.8.1-1.2-.1-1-.7a5 5 0 0 1-3.2.9c-1.4 0-2.6-.3-3.4-1s-1.3-1.3-1.3-2.4a2.6 2.6 0 0 1 .8-1.9 4 4 0 0 1 1.8-1.2 10 10 0 0 1-1-1.6 4 4 0 0 1-.5-1.7c0-.6.2-1.1.5-1.6s.8-.8 1.4-1.1a4 4 0 0 1 1.8-.4c.7 0 1.3 0 1.8.3s.9.5 1.1 1c.2.3.4.7.4 1a3 3 0 0 1-.4 1.7 2 2 0 0 1-1 1c-.3.4-.9.8-1.5 1.1l1.5 1.9 1.5 1.5.4.3c.4-.6.6-1.4.6-2.3v-.4l-1.4-.2v-1.2h4.1zm-8.5-4.2c0 .5.1 1 .3 1.4a8.4 8.4 0 0 0 .9 1.3c.5-.5 1-1 1.2-1.4.2-.5.3-1 .3-1.6a2.1 2.1 0 0 0-.3-1c-.2-.4-.5-.6-1-.6a1.3 1.3 0 0 0-1 .5c-.3.4-.4.8-.4 1.4zm1.6 9a3 3 0 0 0 1.9-.4 15.7 15.7 0 0 1-1.5-1.5l-1.8-2c0-.2-.2-.4-.4-.6l-.8 1a2 2 0 0 0-.3 1c0 .8.3 1.4.8 1.9a3 3 0 0 0 2 .7zm0 0" class="C"/>
  <use x="-.7" y="-.7" class="C" href="#g"/>
  <path d="m281.3 219.9-1.3-.2v-1h5.2v1l-1.4.2v4.2h5V220l-1.2-.2v-1h5v1l-1.2.2v10l1.3.2v1h-5.1v-1l1.3-.2v-4.6h-5.1v4.6l1.4.2v1H280v-1l1.3-.2zm0 0" class="C"/>
  <use x="194.6" y="-.7" class="C" href="#X"/>
  <use x="-.7" y="-.7" class="C" href="#h"/>
  <use x="103.2" y="-.7" class="C" href="#d"/>
  <g fill="#fff">
    <path d="M48 219h-2.4l-.7 3.8h-1.4l.3-5h10.9l.2 5h-1.4L53 219l-2.4-.1v10.3l2.4.1v1h-7v-1l2-.1zm0 0"/>
    <use x="-1.5" y="-1.5" href="#V"/>
    <use x="-90" y="-1.5" href="#a"/>
    <use x="-1.5" y="-1.5" href="#W"/>
    <use x="-1.5" y="-1.5" href="#X"/>
    <use x="62.9" y="-1.5" href="#U"/>
    <use x="20.9" y="-1.5" href="#X"/>
    <use x="-1.5" y="-1.5" href="#Y"/>
    <use x="-1.5" y="-1.5" href="#Z"/>
    <use x="-1.5" y="-1.5" href="#a"/>
    <use x="-1.5" y="-1.5" href="#b"/>
    <use x="-1.5" y="-1.5" href="#c"/>
    <use x="102.8" y="-1.5" href="#X"/>
    <use x="-1.5" y="-1.5" href="#d"/>
    <path d="m225.9 219.2-1.3-.3v-1h5.2v1l-1.4.3v4.2h5v-4.2l-1.2-.3v-1h5v1l-1.2.3v10l1.3.2v1h-5.1v-1l1.3-.1v-4.6h-5.1v4.6l1.4.1v1h-5.2v-1l1.3-.1zm0 0"/>
    <use x="-1.5" y="-1.5" href="#f"/>
    <use x="-1.5" y="-1.5" href="#g"/>
    <use x="53.2" y="-1.5" href="#e"/>
    <use x="193.9" y="-1.5" href="#X"/>
    <use x="-1.5" y="-1.5" href="#h"/>
    <use x="102.4" y="-1.5" href="#d"/>
  </g>
  <path d="m99.5 244-1.4-.3v-1h5.4v1l-1.5.2V254l1.5.2v1H98v-1l1.5-.2zm0 0" class="B"/>
  <use x="-39.6" y="23.3" class="B" href="#Z"/>
  <use x="82.2" y="23.3" class="B" href="#U"/>
  <use x="-84.7" y="23.3" class="B" href="#e"/>
  <use class="B" href="#i"/>
  <use x="-50.4" y="23.3" class="B" href="#e"/>
  <use x="34.3" class="B" href="#i"/>
  <use x="42.7" y="23.3" class="B" href="#a"/>
  <use x="158.7" y="23.3" class="B" href="#V"/>
  <use x="186.3" y="23.3" class="B" href="#U"/>
  <use x="118.9" y="23.3" class="B" href="#Y"/>
  <use x="71.9" y="23.3" class="B" href="#c"/>
  <use x="-4" y="22.5" class="C" href="#X"/>
  <use x="-40.4" y="22.5" class="C" href="#Z"/>
  <use x="81.5" y="22.5" class="C" href="#U"/>
  <use x="-85.5" y="22.5" class="C" href="#e"/>
  <use x="-.7" y="-.7" class="C" href="#i"/>
  <use x="-51.2" y="22.5" class="C" href="#e"/>
  <use x="33.6" y="-.7" class="C" href="#i"/>
  <use x="42" y="22.5" class="C" href="#a"/>
  <use x="157.9" y="22.5" class="C" href="#V"/>
  <use x="185.6" y="22.5" class="C" href="#U"/>
  <use x="118.2" y="22.5" class="C" href="#Y"/>
  <use x="71.1" y="22.5" class="C" href="#c"/>
  <g fill="#fff">
    <use x="-4.7" y="21.8" href="#X"/>
    <use x="-41.1" y="21.8" href="#Z"/>
    <use x="80.7" y="21.8" href="#U"/>
    <use x="-86.2" y="21.8" href="#e"/>
    <use x="-1.5" y="-1.5" href="#i"/>
    <use x="-51.9" y="21.8" href="#e"/>
    <use x="32.8" y="-1.5" href="#i"/>
    <use x="41.2" y="21.8" href="#a"/>
    <use x="157.2" y="21.8" href="#V"/>
    <use x="184.8" y="21.8" href="#U"/>
    <use x="117.5" y="21.8" href="#Y"/>
    <use x="70.4" y="21.8" href="#c"/>
  </g>
  <path d="m81 267.2-1.4-.2v-1H85v1l-1.5.2v10.1l1.5.2v1h-5.4v-1l1.4-.2zm0 0" class="B"/>
  <use x="29" y="46.6" class="B" href="#V"/>
  <use x="-73.1" y="46.6" class="B" href="#b"/>
  <use x="-47" y="46.6" class="B" href="#a"/>
  <use class="B" href="#j"/>
  <use class="B" href="#k"/>
  <use x="32" class="B" href="#j"/>
  <use x="17.4" y="46.6" class="B" href="#a"/>
  <use x="46.3" y="46.6" class="B" href="#Z"/>
  <use x="-60.1" y="46.6" class="B" href="#g"/>
  <use x="-5.4" y="46.6" class="B" href="#e"/>
  <use x="79.3" y="23.3" class="B" href="#i"/>
  <use x="35.1" y="46.6" class="B" href="#d"/>
  <path d="m265.2 267-2.4.1-.7 3.7h-1.4l.3-4.9h11l.1 5h-1.3l-.7-3.8h-2.3v10.2l2.3.2v1h-7v-1l2.1-.2zm0 0" class="B"/>
  <use x="117.7" y="23.3" class="B" href="#i"/>
  <use x="228.5" y="46.6" class="B" href="#V"/>
  <use x="-22.4" y="45.8" class="C" href="#X"/>
  <use x="28.3" y="45.8" class="C" href="#V"/>
  <use x="-73.8" y="45.8" class="C" href="#b"/>
  <use x="-47.7" y="45.8" class="C" href="#a"/>
  <use x="-.7" y="-.7" class="C" href="#j"/>
  <use x="-.7" y="-.7" class="C" href="#k"/>
  <use x="31.2" y="-.7" class="C" href="#j"/>
  <use x="16.7" y="45.8" class="C" href="#a"/>
  <path d="m193.1 266.5-1.3-.3v-1h3.8l5 7.6 1 2v-8.3l-1.5-.3v-1h4.2v1l-1.3.3v11.3h-2l-5.3-8-1.2-2.3v9l1.7.2v1h-4.4v-1l1.3-.1zm0 0" class="C"/>
  <use x="-60.8" y="45.8" class="C" href="#g"/>
  <use x="-6.2" y="45.8" class="C" href="#e"/>
  <use x="78.6" y="22.5" class="C" href="#i"/>
  <use x="34.3" y="45.8" class="C" href="#d"/>
  <use x="215" y="45.8" class="C" href="#U"/>
  <use x="117" y="22.5" class="C" href="#i"/>
  <use x="227.8" y="45.8" class="C" href="#V"/>
  <g fill="#fff">
    <use x="-23.2" y="45.1" href="#X"/>
    <use x="27.5" y="45.1" href="#V"/>
    <use x="-74.6" y="45.1" href="#b"/>
    <use x="-48.5" y="45.1" href="#a"/>
    <use x="-1.5" y="-1.5" href="#j"/>
    <use x="-1.5" y="-1.5" href="#k"/>
    <use x="30.5" y="-1.5" href="#j"/>
    <path d="M181.4 264.4h2.6l3.9 11.4 1 .2v1h-5v-1l1.2-.2-.6-2.2H180l-.7 2.2 1.4.2v1h-4.3v-1l1-.2zm1.2 2.8-.3-1.3-.4 1.3-1.5 5.3h3.7zm0 0"/>
    <use x="44.8" y="45.1" href="#Z"/>
    <use x="-61.6" y="45.1" href="#g"/>
    <use x="-6.9" y="45.1" href="#e"/>
    <use x="77.8" y="21.8" href="#i"/>
    <use x="33.6" y="45.1" href="#d"/>
    <use x="214.3" y="45.1" href="#U"/>
    <use x="116.2" y="21.8" href="#i"/>
    <use x="227" y="45.1" href="#V"/>
    <path d="M18.2 207h1.5v1.6h-1.5m3-1.5h1.5v1.5h-1.5m3-1.5h1.5v1.5h-1.5m3-1.5h1.5v1.5h-1.5m3-1.5h1.5v1.5h-1.5m3-1.5h1.5v1.5h-1.5m3-1.5h1.5v1.5h-1.5m3-1.5h1.5v1.5h-1.5m3-1.5h1.5v1.5h-1.5m3-1.5h1.5v1.5h-1.5m3-1.5h1.5v1.5h-1.5m3-1.5h1.5v1.5h-1.5m3-1.5h1.5v1.5h-1.5m3-1.5h1.5v1.5h-1.5m3-1.5h1.5v1.5h-1.5m3-1.5h1.5v1.5h-1.5m3-1.5h1.5v1.5h-1.5m3-1.5h1.5v1.5h-1.5m3-1.5h1.5v1.5h-1.5m3-1.5h1.5v1.5h-1.5m3-1.5h1.5v1.5h-1.5m3-1.5h1.5v1.5h-1.5m3-1.5h1.5v1.5h-1.5m3-1.5h1.5v1.5h-1.5m3-1.5h1.5v1.5h-1.5m3-1.5h1.5v1.5h-1.5m3-1.5h1.5v1.5h-1.5m3-1.5h1.5v1.5h-1.5m3-1.5h1.5v1.5h-1.5m3-1.5h1.5v1.5h-1.5m3-1.5h1.5v1.5h-1.5m3-1.5h1.5v1.5h-1.5m3-1.5h1.5v1.5h-1.5m3-1.5h1.5v1.5h-1.5m3-1.5h1.5v1.5h-1.5m3-1.5h1.5v1.5h-1.5m3-1.5h1.5v1.5h-1.5m3-1.5h1.5v1.5h-1.5m3-1.5h1.5v1.5h-1.5m3-1.5h1.5v1.5h-1.5m3-1.5h1.5v1.5h-1.5m3-1.5h1.5v1.5h-1.5m3-1.5h1.5v1.5h-1.5m3-1.5h1.5v1.5h-1.5m3-1.5h1.5v1.5h-1.5m3-1.5h1.5v1.5h-1.5m3-1.5h1.5v1.5h-1.5m3-1.5h1.5v1.5h-1.5m3-1.5h1.5v1.5h-1.5m3-1.5h1.5v1.5h-1.5m3-1.5h1.5v1.5h-1.5m3-1.5h1.5v1.5h-1.5m3-1.5h1.5v1.5h-1.5m3-1.5h1.5v1.5h-1.5m3-1.5h1.5v1.5h-1.5m3-1.5h1.5v1.5h-1.5m3-1.5h1.5v1.5h-1.5m3-1.5h1.5v1.5h-1.5m3-1.5h1.5v1.5h-1.5m3-1.5h1.5v1.5h-1.5m3-1.5h1.5v1.5h-1.5m3-1.5h1.5v1.5h-1.5m3-1.5h1.5v1.5h-1.5m3-1.5h1.5v1.5h-1.5m3-1.5h1.5v1.5h-1.5m3-1.5h1.5v1.5h-1.5m3-1.5h1.5v1.5h-1.5m3-1.5h1.5v1.5h-1.5m3-1.5h1.5v1.5h-1.5m3-1.5h1.5v1.5h-1.5m3-1.5h1.5v1.5h-1.5m3-1.5h1.5v1.5h-1.5m3-1.5h1.5v1.5h-1.5m3-1.5h1.5v1.5h-1.5m3-1.5h1.5v1.5h-1.5m3-1.5h1.5v1.5h-1.5m3-1.5h1.5v1.5h-1.5m3-1.5h1.5v1.5h-1.5m3-1.5h1.5v1.5h-1.5m3-1.5h1.5v1.5h-1.5m3-1.5h1.5v1.5h-1.5m3-1.5h1.5v1.5h-1.5m3-1.5h1.5v1.5h-1.5m3-1.5h1.5v1.5h-1.5m3-1.5h1.5v1.5h-1.5m3-1.5h1.5v1.5h-1.5m3-1.5h1.5v1.5h-1.5m3-1.5h1.5v1.5h-1.5m3-1.5h1.5v1.5h-1.5m3-1.5h1.5v1.5h-1.5m3-1.5h1.5v1.5h-1.5m3-1.5h1.5v1.5h-1.5m3-1.5h1.5v1.5h-1.5m3-1.5h1.5v1.5h-1.5m3-1.5h1.5v1.5h-1.5m3-1.5h1.5v1.5h-1.5m3-1.5h1.5v1.5h-1.5m3-1.5h1.5v1.5h-1.5m3-1.5h1.5v1.5h-1.5m3-1.5h1.5v1.5h-1.5m3-1.5h1.5v1.5h-1.5m3-1.5h1.5v1.5h-1.5m3-1.5h1.5v1.5h-1.5m3-1.5h1.5v1.5h-1.5m3-1.5h1.5v1.5h-1.5m3-1.5h1.5v1.5h-1.5m3-1.5h1.5v1.5h-1.5m3-1.5h1.5v1.5h-1.5m3-1.5h1.5v1.5h-1.5m3-1.5h1.5v1.5h-1.5m3-1.5h1.5v1.5h-1.5m3-1.5h1.5v1.5h-1.5m3-1.5h1.5v1.5h-1.5"/>
  </g>
</svg>